<mxfile host="app.diagrams.net" modified="2022-08-17T14:54:32.985Z" agent="5.0 (X11; Linux x86_64) AppleWebKit/537.36 (KHTML, like Gecko) Chrome/104.0.0.0 Safari/537.36" etag="tlpQUdNPpXmIhKPmg0IK" version="20.2.4" type="github">
  <diagram id="Hl3YAIBhabtKwsDlEN7n" name="Página-1">
    <mxGraphModel dx="1065" dy="482" grid="1" gridSize="10" guides="1" tooltips="1" connect="1" arrows="1" fold="1" page="1" pageScale="1" pageWidth="827" pageHeight="1169" math="0" shadow="0">
      <root>
        <mxCell id="0" />
        <mxCell id="1" parent="0" />
        <mxCell id="g8BR1mczC_VzuBFR-EDG-4" value="«External API»&lt;br&gt;«Public»&lt;br&gt;&lt;b&gt;starwars&lt;/b&gt;" style="html=1;" vertex="1" parent="1">
          <mxGeometry x="400" y="110" width="110" height="50" as="geometry" />
        </mxCell>
        <mxCell id="g8BR1mczC_VzuBFR-EDG-6" style="edgeStyle=orthogonalEdgeStyle;rounded=0;orthogonalLoop=1;jettySize=auto;html=1;" edge="1" parent="1" source="g8BR1mczC_VzuBFR-EDG-5" target="g8BR1mczC_VzuBFR-EDG-4">
          <mxGeometry relative="1" as="geometry" />
        </mxCell>
        <mxCell id="g8BR1mczC_VzuBFR-EDG-26" style="edgeStyle=orthogonalEdgeStyle;rounded=0;orthogonalLoop=1;jettySize=auto;html=1;entryX=0.154;entryY=0.05;entryDx=0;entryDy=0;entryPerimeter=0;" edge="1" parent="1" source="g8BR1mczC_VzuBFR-EDG-5" target="g8BR1mczC_VzuBFR-EDG-24">
          <mxGeometry relative="1" as="geometry" />
        </mxCell>
        <mxCell id="g8BR1mczC_VzuBFR-EDG-5" value="«Internal API»&lt;br&gt;«Private»&lt;br&gt;&lt;b&gt;starwars&lt;/b&gt;" style="html=1;" vertex="1" parent="1">
          <mxGeometry x="150" y="110" width="110" height="50" as="geometry" />
        </mxCell>
        <mxCell id="g8BR1mczC_VzuBFR-EDG-24" value="API" style="shape=folder;fontStyle=1;spacingTop=10;tabWidth=40;tabHeight=14;tabPosition=left;html=1;" vertex="1" parent="1">
          <mxGeometry x="140" y="220" width="420" height="270" as="geometry" />
        </mxCell>
        <mxCell id="g8BR1mczC_VzuBFR-EDG-15" value="node.js" style="shape=module;align=left;spacingLeft=20;align=center;verticalAlign=top;" vertex="1" parent="1">
          <mxGeometry x="170" y="270" width="100" height="50" as="geometry" />
        </mxCell>
        <mxCell id="g8BR1mczC_VzuBFR-EDG-16" value="typescript" style="shape=module;align=left;spacingLeft=20;align=center;verticalAlign=top;" vertex="1" parent="1">
          <mxGeometry x="170" y="340" width="100" height="50" as="geometry" />
        </mxCell>
        <mxCell id="g8BR1mczC_VzuBFR-EDG-18" value="mongodb" style="shape=module;align=left;spacingLeft=20;align=center;verticalAlign=top;" vertex="1" parent="1">
          <mxGeometry x="445" y="410" width="100" height="50" as="geometry" />
        </mxCell>
        <mxCell id="g8BR1mczC_VzuBFR-EDG-17" value="express" style="shape=module;align=left;spacingLeft=20;align=center;verticalAlign=top;" vertex="1" parent="1">
          <mxGeometry x="305" y="270" width="100" height="50" as="geometry" />
        </mxCell>
        <mxCell id="g8BR1mczC_VzuBFR-EDG-19" value="overnightjs" style="shape=module;align=left;spacingLeft=20;align=center;verticalAlign=top;" vertex="1" parent="1">
          <mxGeometry x="445" y="270" width="100" height="50" as="geometry" />
        </mxCell>
        <mxCell id="g8BR1mczC_VzuBFR-EDG-20" value="jest" style="shape=module;align=left;spacingLeft=20;align=center;verticalAlign=top;" vertex="1" parent="1">
          <mxGeometry x="445" y="340" width="100" height="50" as="geometry" />
        </mxCell>
        <mxCell id="g8BR1mczC_VzuBFR-EDG-21" value="yarn" style="shape=module;align=left;spacingLeft=20;align=center;verticalAlign=top;" vertex="1" parent="1">
          <mxGeometry x="170" y="410" width="100" height="50" as="geometry" />
        </mxCell>
        <mxCell id="g8BR1mczC_VzuBFR-EDG-22" value="config" style="shape=module;align=left;spacingLeft=20;align=center;verticalAlign=top;" vertex="1" parent="1">
          <mxGeometry x="305" y="410" width="100" height="50" as="geometry" />
        </mxCell>
      </root>
    </mxGraphModel>
  </diagram>
</mxfile>
